<svg id="Layer_1" data-name="Layer 1" xmlns="http://www.w3.org/2000/svg" viewBox="0 0 98 137.8"><defs><style>.cls-1{fill:#fff;}</style></defs><title>1xArtboard 1@1x</title><path class="cls-1" d="M25.4,19.4V17.3c0-.1.1-.3.1-.4a1.38,1.38,0,0,1,.4-.3c.2,0,.4-.1.7-.1h1.6V13.4H25.7a4,4,0,0,0-3.1,1,4.48,4.48,0,0,0-.9,3v1.9H19.8v3.1h1.9v9h3.7v-9h2.5l.3-3.1H25.4Z"/><path class="cls-1" d="M74.4,19.4V17.3c0-.1.1-.3.1-.4a1.38,1.38,0,0,1,.4-.3c.2,0,.4-.1.7-.1h1.6V13.4H74.7a4,4,0,0,0-3.1,1,4.48,4.48,0,0,0-.9,3v1.9H68.8v3.1h1.9v9h3.7v-9h2.5l.3-3.1H74.4Z"/><path class="cls-1" d="M33,50.9a8.3,8.3,0,0,1-2.1.6,3.89,3.89,0,0,0,1.6-2,9.17,9.17,0,0,1-2.3.9,3.42,3.42,0,0,0-2.7-1.2,3.76,3.76,0,0,0-3.7,3.7,2,2,0,0,0,.1.8,11.86,11.86,0,0,1-4.2-1.1,12.67,12.67,0,0,1-3.4-2.7,4.14,4.14,0,0,0-.5,1.9,3.92,3.92,0,0,0,.4,1.8,3.74,3.74,0,0,0,1.2,1.3,3.69,3.69,0,0,1-1.7-.5h0a3.57,3.57,0,0,0,.8,2.3A3.93,3.93,0,0,0,18.6,58a3.08,3.08,0,0,1-1,.1,2,2,0,0,1-.7-.1,3.8,3.8,0,0,0,1.3,1.8,3.14,3.14,0,0,0,2.1.7,7,7,0,0,1-4.6,1.6h-.9a10.31,10.31,0,0,0,5.7,1.7,11.48,11.48,0,0,0,3.7-.6,8.24,8.24,0,0,0,2.9-1.7,12.06,12.06,0,0,0,2.1-2.4,11.71,11.71,0,0,0,1.3-2.8,10.32,10.32,0,0,0,.4-3v-.5A4.89,4.89,0,0,0,33,50.9Z"/><path class="cls-1" d="M82,50.9a8.3,8.3,0,0,1-2.1.6,3.89,3.89,0,0,0,1.6-2,9.17,9.17,0,0,1-2.3.9,3.42,3.42,0,0,0-2.7-1.2,3.76,3.76,0,0,0-3.7,3.7,2,2,0,0,0,.1.8,11.86,11.86,0,0,1-4.2-1.1,12.67,12.67,0,0,1-3.4-2.7,4.14,4.14,0,0,0-.5,1.9,3.92,3.92,0,0,0,.4,1.8,3.74,3.74,0,0,0,1.2,1.3,3.69,3.69,0,0,1-1.7-.5h0a3.57,3.57,0,0,0,.8,2.3A3.93,3.93,0,0,0,67.6,58a3.08,3.08,0,0,1-1,.1,2,2,0,0,1-.7-.1,3.8,3.8,0,0,0,1.3,1.8,3.14,3.14,0,0,0,2.1.7,7,7,0,0,1-4.6,1.6h-.9a10.31,10.31,0,0,0,5.7,1.7,11.48,11.48,0,0,0,3.7-.6,8.24,8.24,0,0,0,2.9-1.7,12.06,12.06,0,0,0,2.1-2.4,11.71,11.71,0,0,0,1.3-2.8,10.32,10.32,0,0,0,.4-3v-.5A4.89,4.89,0,0,0,82,50.9Z"/><path class="cls-1" d="M25.6,93a4.35,4.35,0,0,0-.6-.7c-.2-.2-.5-.4-.7-.6a2.65,2.65,0,0,0-.6-.5l-.5-.5A2.54,2.54,0,0,1,23,90a1.45,1.45,0,0,1,.2-.7,4.35,4.35,0,0,0,.6-.7,4.62,4.62,0,0,0,.7-.7,8.79,8.79,0,0,0,.6-1,3.18,3.18,0,0,0,.2-1.4,3.92,3.92,0,0,0-.4-1.8,4.07,4.07,0,0,0-1.2-1.4h1.5l1.5-.9H22a13.55,13.55,0,0,0-2,.2,4.36,4.36,0,0,0-2.5,1.5,3.94,3.94,0,0,0-1,2.7,3.42,3.42,0,0,0,1.2,2.7,4.11,4.11,0,0,0,2.8,1.1,2.49,2.49,0,0,0,.8-.1c0,.1,0,.1-.1.2a.35.35,0,0,1-.1.2c0,.1,0,.1-.1.2s0,.2,0,.3a2.47,2.47,0,0,0,.7,1.6c-.5,0-1.1.1-1.6.1a13.63,13.63,0,0,0-1.7.4,4.81,4.81,0,0,0-1.6.8,2.34,2.34,0,0,0-1,1.2,2.82,2.82,0,0,0-.4,1.5,2.77,2.77,0,0,0,.3,1.3,3.92,3.92,0,0,0,.8,1,3.37,3.37,0,0,0,1.2.6,6.47,6.47,0,0,0,1.3.4,5.7,5.7,0,0,0,1.3.1A6.91,6.91,0,0,0,24.8,98a4,4,0,0,0,1.5-3.1,5,5,0,0,0-.2-1.2A3,3,0,0,0,25.6,93Zm-4.1-4a2.28,2.28,0,0,1-1.1-.3,2.7,2.7,0,0,1-.8-.7,8.79,8.79,0,0,1-.6-1,7.6,7.6,0,0,1-.4-1.1,3.75,3.75,0,0,1-.1-1.1,2.79,2.79,0,0,1,.6-1.8,1.86,1.86,0,0,1,1.6-.7,2,2,0,0,1,1.3.4,3.13,3.13,0,0,1,.9,1.1,7.84,7.84,0,0,1,.5,1.4,6.75,6.75,0,0,1,.2,1.4,2.86,2.86,0,0,1-.5,1.7A1.86,1.86,0,0,1,21.5,89Zm3,8.1a3,3,0,0,1-.8.8,3.58,3.58,0,0,1-1.1.4,4.87,4.87,0,0,1-1.2.1,6.75,6.75,0,0,1-1.4-.2,5,5,0,0,1-1.3-.5,2.19,2.19,0,0,1-1-.9,2,2,0,0,1-.4-1.3,2.66,2.66,0,0,1,.3-1.2,2.7,2.7,0,0,1,.7-.8,3.7,3.7,0,0,1,1.1-.5l1.2-.3a4.48,4.48,0,0,1,1.1-.1h.5a1.44,1.44,0,0,1,.3.2c.2.1.3.2.4.2s.2.1.3.2.3.2.3.3l.3.3.3.3c.1.1.1.2.2.3a.76.76,0,0,1,.2.4c0,.1.1.2.1.4v.4A1.74,1.74,0,0,1,24.5,97.1Z"/><polygon class="cls-1" points="30.5 84.3 30.5 81.5 29.1 81.5 29.1 84.3 26.4 84.3 26.4 85.6 29.1 85.6 29.1 88.4 30.5 88.4 30.5 85.6 33.3 85.6 33.3 84.3 30.5 84.3"/><path class="cls-1" d="M74.1,93a4.35,4.35,0,0,0-.6-.7c-.2-.2-.5-.4-.7-.6a2.65,2.65,0,0,0-.6-.5l-.5-.5a1.42,1.42,0,0,1-.2-.6,1.45,1.45,0,0,1,.2-.7,4.35,4.35,0,0,0,.6-.7A4.62,4.62,0,0,0,73,88a8.79,8.79,0,0,0,.6-1,3.18,3.18,0,0,0,.2-1.4,3.92,3.92,0,0,0-.4-1.8,4.07,4.07,0,0,0-1.2-1.4h1.5l1.5-.9H70.5a13.55,13.55,0,0,0-2,.2A4.36,4.36,0,0,0,66,83.2a3.94,3.94,0,0,0-1,2.7,3.42,3.42,0,0,0,1.2,2.7A4.11,4.11,0,0,0,69,89.7a2.49,2.49,0,0,0,.8-.1c0,.1,0,.1-.1.2a.35.35,0,0,1-.1.2c0,.1,0,.1-.1.2s0,.2,0,.3a2.47,2.47,0,0,0,.7,1.6c-.5,0-1.1.1-1.6.1a13.63,13.63,0,0,0-1.7.4,4.81,4.81,0,0,0-1.6.8,2.34,2.34,0,0,0-1,1.2,2.82,2.82,0,0,0-.4,1.5,2.77,2.77,0,0,0,.3,1.3,3.92,3.92,0,0,0,.8,1,3.37,3.37,0,0,0,1.2.6,6.47,6.47,0,0,0,1.3.4,5.7,5.7,0,0,0,1.3.1,6.91,6.91,0,0,0,4.5-1.4A4,4,0,0,0,74.8,95a5,5,0,0,0-.2-1.2A2.18,2.18,0,0,0,74.1,93ZM70,89a2.28,2.28,0,0,1-1.1-.3,2.7,2.7,0,0,1-.8-.7,8.79,8.79,0,0,1-.6-1,7.6,7.6,0,0,1-.4-1.1,4.1,4.1,0,0,1-.1-1.1,2.79,2.79,0,0,1,.6-1.8,1.86,1.86,0,0,1,1.6-.7,2,2,0,0,1,1.3.4,3.13,3.13,0,0,1,.9,1.1,7.84,7.84,0,0,1,.5,1.4,6.75,6.75,0,0,1,.2,1.4,2.86,2.86,0,0,1-.5,1.7A1.86,1.86,0,0,1,70,89Zm3,8.1a3,3,0,0,1-.8.8,3.58,3.58,0,0,1-1.1.4,4.87,4.87,0,0,1-1.2.1,6.75,6.75,0,0,1-1.4-.2,5,5,0,0,1-1.3-.5,2.19,2.19,0,0,1-1-.9,2,2,0,0,1-.4-1.3,2.66,2.66,0,0,1,.3-1.2,2.7,2.7,0,0,1,.7-.8,3.7,3.7,0,0,1,1.1-.5l1.2-.3a4.48,4.48,0,0,1,1.1-.1h.5a1.44,1.44,0,0,1,.3.2c.2.1.3.2.4.2s.2.1.3.2.3.2.3.3l.3.3.3.3c.1.1.1.2.2.3a.76.76,0,0,1,.2.4c0,.1.1.2.1.4v.4A1.74,1.74,0,0,1,73,97.1Z"/><polygon class="cls-1" points="79 84.3 79 81.5 77.6 81.5 77.6 84.3 74.9 84.3 74.9 85.6 77.6 85.6 77.6 88.4 79 88.4 79 85.6 81.8 85.6 81.8 84.3 79 84.3"/><rect class="cls-1" x="16.2" y="116.3" width="3.4" height="10.3"/><path class="cls-1" d="M30.9,117.2A3.7,3.7,0,0,0,28,116a5,5,0,0,0-1.2.2,1.93,1.93,0,0,0-.9.5,2.65,2.65,0,0,1-.6.5c-.1.2-.3.3-.4.6v-1.5H21.5v10.3H25v-5.8a1.72,1.72,0,0,1,.1-.8,1.6,1.6,0,0,1,.7-.9,2.1,2.1,0,0,1,1.1-.4,1.49,1.49,0,0,1,1.3.6,2.86,2.86,0,0,1,.4,1.7v5.5H32v-5.9A5.14,5.14,0,0,0,30.9,117.2Z"/><path class="cls-1" d="M17.9,111.3a2.17,2.17,0,0,0-1.4.5,1.54,1.54,0,0,0-.5,1.3,2.11,2.11,0,0,0,.5,1.3,2,2,0,0,0,1.4.5h0a2,2,0,0,0,1.4-.5,1.54,1.54,0,0,0,.5-1.3,2.11,2.11,0,0,0-.5-1.3A1.62,1.62,0,0,0,17.9,111.3Z"/><rect class="cls-1" x="65.2" y="116.3" width="3.4" height="10.3"/><path class="cls-1" d="M79.9,117.2A3.7,3.7,0,0,0,77,116a5,5,0,0,0-1.2.2,1.93,1.93,0,0,0-.9.5,2.65,2.65,0,0,1-.6.5c-.1.2-.3.3-.4.6v-1.5H70.5v10.3H74v-5.8a1.72,1.72,0,0,1,.1-.8,1.6,1.6,0,0,1,.7-.9,2.1,2.1,0,0,1,1.1-.4,1.49,1.49,0,0,1,1.3.6,2.86,2.86,0,0,1,.4,1.7v5.5H81v-5.9A5.14,5.14,0,0,0,79.9,117.2Z"/><path class="cls-1" d="M66.9,111.3a2.17,2.17,0,0,0-1.4.5,1.54,1.54,0,0,0-.5,1.3,2.11,2.11,0,0,0,.5,1.3,2,2,0,0,0,1.4.5h0a2,2,0,0,0,1.4-.5,1.54,1.54,0,0,0,.5-1.3,2.11,2.11,0,0,0-.5-1.3A1.62,1.62,0,0,0,66.9,111.3Z"/></svg>